<?xml version="1.0" encoding="UTF-8"?>
<svg width="10px" height="26px" viewBox="0 0 10 26" version="1.1" xmlns="http://www.w3.org/2000/svg" xmlns:xlink="http://www.w3.org/1999/xlink">
    <title>路径备份</title>
    <g id="控制台优化new" stroke="none" stroke-width="1" fill="none" fill-rule="evenodd">
        <g id="2.1.2控制台_已订阅" transform="translate(-331.000000, -1078.000000)" fill="#666666" fill-rule="nonzero">
            <g id="编组-7" transform="translate(331.000000, 0.000000)">
                <g id="编组-6" transform="translate(0.000000, 910.000000)">
                    <path d="M3.78972753,176.436878 C4.41354072,176.021002 5.21273825,175.991297 5.86160635,176.347762 L6.00852832,176.436878 L17.4538281,184.067078 C17.9133568,184.37343 18.0375307,184.994299 17.7311782,185.453828 C17.4467081,185.880533 16.8910474,186.018081 16.4451942,185.79027 L16.3444277,185.731178 L4.89912792,178.100978 L-6.54617188,185.731178 C-7.00570057,186.037531 -7.62656991,185.913357 -7.93292237,185.453828 C-8.21739251,185.027123 -8.13064352,184.461303 -7.74887504,184.137365 L-7.65557227,184.067078 L3.78972753,176.436878 Z" id="路径备份" transform="translate(4.899128, 181.000106) scale(-1, 1) rotate(-270.000000) translate(-4.899128, -181.000106) "></path>
                </g>
            </g>
        </g>
    </g>
</svg>